# xmcd CD database file
#
# Track frame offsets:
#	150
#	17311
#	41319
#	57508
#	75049
#	99292
#	119838
#	137797
#	149279
#	163685
#	181554
#	194642
#	212150
#	235757
#	253291
#	277330
#	299338
#	312386
#	326199
#
# Disc length: 4520 seconds
#
# Revision: 1
# Processed by: cddbd v1.5.2PL0 Copyright (c) Steve Scherf et al.
# Submitted via: CDex 1.51
#
DISCID=1b11a613
DTITLE=Variouse - Music Orchids For You - Is We Thing
DYEAR=2000
DGENRE=Salsa
TTITLE0=Come Leh We Go Sookie - King Fighter
TTITLE1=Soncho - Korokwa Folk
TTITLE2=Cool Dive -Al Seals
TTITLE3=Guyana Baboo - Terry Gajraj
TTITLE4=The Weed Song - Bill Rogers
TTITLE5=Pakaraima - Dennis DeSouza
TTITLE6=My Guyana - Bing Serrao and The Ramblers
TTITLE7=Thing A Ling Doreen |Gravesande
TTITLE8=Masquerande Band - The Tradewinds
TTITLE9=Sleepwalk - Reggie Paul
TTITLE10=Jane Engage - Police Male Voice Choir
TTITLE11=Thin Over It - Uvor Lynch
TTITLE12=Guyana With Love - Keith - Waith
TTITLE13=Granny Fit - Lady Guymine
TTITLE14=Satira Gal - Hugh Sam
TTITLE15=Long Long time -Tony Mangra
TTITLE16=Sweet Island Woman - Ray Geddes Silver
TTITLE17=Mascuraman - Yoruba SIngers
TTITLE18=Oh Beautiful Guyana - Choir Atlantic Symphony Steel Orchestra
EXTD=YEAR: 2000
EXTT0=
EXTT1=
EXTT2=
EXTT3=
EXTT4=
EXTT5=
EXTT6=
EXTT7=
EXTT8=
EXTT9=
EXTT10=
EXTT11=
EXTT12=
EXTT13=
EXTT14=
EXTT15=
EXTT16=
EXTT17=
EXTT18=
PLAYORDER=
